#N canvas 1052 547 585 561 10;
#X obj 69 7 r test;
#X obj 56 79 osc~ 440;
#X obj 56 269 *~;
#X obj 72 243 line~;
#X text 129 243 <--- ramp generator;
#X text 110 78 <-- sine wave;
#X msg 72 125 0.1 50;
#X msg 146 158 0 50;
#X text 144 126 <-- fast;
#X text 186 159 <-- fast;
#X text 117 308 <-- out;
#X text 93 268 <-- multiply the sine wave by the ramp. There's no longer
a "0" argument-- this tells Pd to expect a signal here.;
#X obj 199 5 r test2;
#X obj 257 132 print;
#X obj 56 309 dac~ 1 2;
#X obj 265 397 s testOut;
#X obj 340 85 tgl 15 0 empty empty empty 17 7 0 10 -262144 -1 -1 1
1;
#X obj 332 150 metro 100;
#X obj 396 178 random 5;
#X floatatom 315 234 5 0 0 0 - - -, f 5;
#X obj 327 44 loadbang;
#X obj 325 192 random 5;
#X floatatom 481 287 5 0 0 0 - - -, f 5;
#X obj 371 392 s arrayTest;
#X floatatom 409 229 5 0 0 0 - - -, f 5;
#X obj 377 322 pack 0 0 0;
#X obj 480 226 + 1;
#X obj 465 182 random 15;
#X connect 0 0 6 0;
#X connect 1 0 2 0;
#X connect 2 0 14 0;
#X connect 2 0 14 1;
#X connect 3 0 2 1;
#X connect 6 0 3 0;
#X connect 7 0 3 0;
#X connect 12 0 7 0;
#X connect 16 0 17 0;
#X connect 17 0 18 0;
#X connect 17 0 21 0;
#X connect 17 0 27 0;
#X connect 18 0 24 0;
#X connect 19 0 13 0;
#X connect 19 0 15 0;
#X connect 19 0 25 0;
#X connect 20 0 16 0;
#X connect 21 0 19 0;
#X connect 22 0 25 1;
#X connect 24 0 25 2;
#X connect 25 0 23 0;
#X connect 26 0 22 0;
#X connect 27 0 26 0;
